<svg id="Layer_1" data-name="Layer 1" xmlns="http://www.w3.org/2000/svg" viewBox="0 0 259.21 496.71"><defs><style>.cls-1{fill:#fff;}</style></defs><path class="cls-1" d="M14,0c3.28,2.82,6.77,5.43,9.82,8.48Q138.32,122.84,252.7,237.27c8.72,8.73,8.69,13.46-.16,22.31Q137.12,375,21.65,490.43a33.51,33.51,0,0,1-5.13,4.4,10.34,10.34,0,0,1-13.33-1.22A10.72,10.72,0,0,1,2,479.9a37.64,37.64,0,0,1,4.47-5.07q111-111,222-221.94a50.07,50.07,0,0,1,4.55-3.61l.88-2.23c-1.7-1-3.72-1.58-5-2.91Q117.42,132.92,6.16,21.52C3.94,19.29,1.67,16.65.67,13.77-1.35,8,1.19,3.93,8.22,0Z"/></svg>