<svg id="Layer_1" data-name="Layer 1" xmlns="http://www.w3.org/2000/svg" viewBox="0 0 141.7 30.23"><defs><style>.cls-1{fill:#973aaa;}.cls-2{fill:#e9cef8;}.cls-3{fill:#4c2687;}.cls-4{fill:#180551;}</style></defs><path class="cls-1" d="M1.2,15.38a.19.19,0,0,1-.2-.06V9.1h.25a1.31,1.31,0,0,1,.35,1v4.18A1.29,1.29,0,0,1,1.2,15.38Z" transform="translate(-0.97)"/><path class="cls-1" d="M1,20.83a.31.31,0,0,1,.23,0,1.18,1.18,0,0,1,.36.85c.06,1.5,0,3,0,4.5a1.16,1.16,0,0,1-.34.86H1Z" transform="translate(-0.97)"/><path class="cls-2" d="M31,23.27a6.74,6.74,0,0,0-5.21-2.22,6.34,6.34,0,0,0-6.06,6.61,6.5,6.5,0,0,0,.22,1.39c.27.86.24,1.21-.81,1.18-2.6-.06-5.19,0-7.79,0-.84,0-1.17-.23-1.25-1.14-.59-7.1,2.41-12.35,8.45-15.82a15.2,15.2,0,0,1,11.67-1.39.87.87,0,0,1,.8.94s0,0,0,.06C31,16.2,31,19.58,31,23.27Z" transform="translate(-0.97)"/><path class="cls-3" d="M12.28,0V.23a1.52,1.52,0,0,1-1.22.38H3.91A1.72,1.72,0,0,1,2.68.24V0Z" transform="translate(-0.97)"/><path class="cls-3" d="M19.72.24V0h9.6V.24a1.72,1.72,0,0,1-1.23.37H20.94A1.55,1.55,0,0,1,19.72.24Z" transform="translate(-0.97)"/><path class="cls-3" d="M19.72.24h9.59c-.1,4.4-3.71,9.17-8.29,11A13.52,13.52,0,0,1,3.46,3.68a12.9,12.9,0,0,1-.72-2.44,8.39,8.39,0,0,1-.06-1h9.6a4.06,4.06,0,0,0,5.35,2.09A4.06,4.06,0,0,0,19.72.24Z" transform="translate(-0.97)"/><path class="cls-1" d="M1.25,27V20.81c2-.7,2.7-1.66,2.43-3.22-.24-1.39-1.24-1.92-2.46-2.21V9.13A8.95,8.95,0,0,1,1.22,27Z" transform="translate(-0.97)"/><path class="cls-4" d="M52.34,7.08,46.19,21.45h-4L36.05,7.08h4.39l3.9,9.36,4-9.36Z" transform="translate(-0.97)"/><path class="cls-4" d="M62.62,14h3.59v5.95a10.7,10.7,0,0,1-6,1.82c-4.58,0-7.92-3.09-7.92-7.47s3.34-7.47,8-7.47a7.86,7.86,0,0,1,6.28,2.63L64,11.76a4.49,4.49,0,0,0-3.49-1.6,3.87,3.87,0,0,0-4.11,4.1,3.89,3.89,0,0,0,4.07,4.11,5.11,5.11,0,0,0,2.19-.47Z" transform="translate(-0.97)"/><path class="cls-4" d="M79,15.27v6.18H75.41V20a3.38,3.38,0,0,1-3.29,1.62c-2.67,0-4.14-1.5-4.14-3.42s1.49-3.33,4.94-3.33h2.22c-.06-1.13-.82-1.77-2.36-1.77a5.16,5.16,0,0,0-3,1l-1.31-2.65a9.35,9.35,0,0,1,4.9-1.29C77,10.14,79,11.74,79,15.27Zm-3.9,2.61v-1H73.46c-1.26,0-1.71.45-1.71,1.13s.54,1.13,1.46,1.13A1.93,1.93,0,0,0,75.14,17.88Z" transform="translate(-0.97)"/><path class="cls-4" d="M81.5,6.22h3.9V21.45H81.5Z" transform="translate(-0.97)"/><path class="cls-4" d="M100.38,15.89a5.39,5.39,0,0,1-5.46,5.74,4.15,4.15,0,0,1-3.1-1.17v5h-3.9V10.32h3.72v1.11a4,4,0,0,1,3.28-1.29A5.4,5.4,0,0,1,100.38,15.89Zm-3.94,0a2.36,2.36,0,1,0-4.68,0,2.36,2.36,0,1,0,4.68,0Z" transform="translate(-0.97)"/><path class="cls-4" d="M113.49,16.87H105.4a2.58,2.58,0,0,0,2.73,1.79,3.56,3.56,0,0,0,2.57-1l2,2.14a6,6,0,0,1-4.74,1.8c-4,0-6.53-2.44-6.53-5.76s2.61-5.73,6.12-5.73c3.28,0,6,2.09,6,5.77C113.55,16.19,113.51,16.56,113.49,16.87Zm-8.15-2.05h4.56a2.32,2.32,0,0,0-4.56,0Z" transform="translate(-0.97)"/><path class="cls-4" d="M122.81,10.14v3.51a7.38,7.38,0,0,0-.89-.06,2.42,2.42,0,0,0-2.66,2.75v5.11h-3.9V10.32h3.71v1.34A4.54,4.54,0,0,1,122.81,10.14Z" transform="translate(-0.97)"/><path class="cls-4" d="M124,7A2.16,2.16,0,0,1,126.35,5a2.12,2.12,0,0,1,2.39,2A2.4,2.4,0,0,1,124,7Zm.44,3.3h3.89V21.45h-3.89Z" transform="translate(-0.97)"/><path class="cls-4" d="M142.67,15.08v6.37h-3.9V15.72c0-1.6-.7-2.28-1.83-2.28s-2.21.78-2.21,2.63v5.38h-3.9V10.32h3.71v1.21a4.79,4.79,0,0,1,3.53-1.39C140.68,10.14,142.67,11.64,142.67,15.08Z" transform="translate(-0.97)"/></svg>